<?xml version="1.0" standalone="no"?>
<!DOCTYPE svg PUBLIC "-//W3C//DTD SVG 20010904//EN"
 "http://www.w3.org/TR/2001/REC-SVG-20010904/DTD/svg10.dtd">
<svg version="1.0" xmlns="http://www.w3.org/2000/svg"
 width="116.000000pt" height="108.000000pt" viewBox="0 0 116.000000 108.000000"
 preserveAspectRatio="xMidYMid meet">
<metadata>
Created by potrace 1.16, written by Peter Selinger 2001-2019
</metadata>
<g transform="translate(0.000000,108.000000) scale(0.100000,-0.100000)"
fill="#000000" stroke="none">
<path d="M747 990 c-33 -5 -82 -20 -110 -33 l-51 -23 -61 25 c-56 23 -75 25
-255 29 -179 4 -197 2 -218 -14 l-22 -19 -1 -397 c0 -219 3 -403 7 -409 4 -7
27 -9 68 -5 149 15 312 18 354 7 41 -12 53 -20 90 -68 31 -39 59 -39 95 1 61
67 155 86 327 66 58 -7 114 -12 125 -12 44 2 45 15 45 429 l0 393 -24 15 c-29
19 -280 29 -369 15z m266 -86 l37 -7 0 -333 0 -334 -27 7 c-16 4 -84 7 -153 7
-103 0 -134 -4 -177 -21 l-53 -21 0 329 0 328 31 16 c17 9 49 20 72 25 51 10
218 12 270 4z m-521 -26 c20 -9 41 -25 47 -36 11 -20 17 -622 6 -622 -2 0 -30
7 -62 15 -61 16 -220 19 -310 6 l-53 -7 0 334 0 334 168 -4 c123 -3 177 -9
204 -20z"/>
</g>
</svg>
